<svg width="26" height="26" viewBox="0 0 26 26" fill="none" xmlns="http://www.w3.org/2000/svg">
<path d="M4.33332 22.7498C3.73749 22.7498 3.2276 22.5379 2.80366 22.1139C2.37971 21.69 2.16738 21.1797 2.16666 20.5832V8.6665C2.16666 8.07067 2.37899 7.56078 2.80366 7.13684C3.22832 6.71289 3.73821 6.50056 4.33332 6.49984H8.66666V4.33317C8.66666 3.73734 8.87899 3.22745 9.30366 2.8035C9.72832 2.37956 10.2382 2.16723 10.8333 2.1665H15.1667C15.7625 2.1665 16.2727 2.37884 16.6974 2.8035C17.1221 3.22817 17.334 3.73806 17.3333 4.33317V6.49984H21.6667C22.2625 6.49984 22.7727 6.71217 23.1974 7.13684C23.6221 7.5615 23.834 8.07139 23.8333 8.6665V11.9165C23.8333 12.2234 23.7293 12.4762 23.5213 12.6748C23.3133 12.8734 23.0562 12.9728 22.75 12.9728C22.4438 12.9728 22.1867 12.8691 21.9787 12.6618C21.7707 12.4546 21.6667 12.1971 21.6667 11.8894V8.6665H4.33332V20.5832H11.375C11.6819 20.5832 11.9394 20.6872 12.1474 20.8952C12.3554 21.1032 12.459 21.3603 12.4583 21.6665C12.4576 21.9727 12.3536 22.2302 12.1463 22.4389C11.939 22.6476 11.6819 22.7513 11.375 22.7498H4.33332ZM10.8333 6.49984H15.1667V4.33317H10.8333V6.49984ZM19.5 24.9165C18.0014 24.9165 16.7241 24.3882 15.6682 23.3316C14.6124 22.275 14.084 20.9977 14.0833 19.4998C14.0826 18.0019 14.6109 16.7247 15.6682 15.6681C16.7256 14.6115 18.0028 14.0832 19.5 14.0832C20.9972 14.0832 22.2748 14.6115 23.3328 15.6681C24.3909 16.7247 24.9188 18.0019 24.9167 19.4998C24.9145 20.9977 24.3862 22.2753 23.3317 23.3327C22.2773 24.39 21 24.9179 19.5 24.9165ZM20.0417 19.2832V16.7915C20.0417 16.6471 19.9875 16.5207 19.8792 16.4123C19.7708 16.304 19.6444 16.2498 19.5 16.2498C19.3555 16.2498 19.2292 16.304 19.1208 16.4123C19.0125 16.5207 18.9583 16.6471 18.9583 16.7915V19.2561C18.9583 19.4005 18.9854 19.5406 19.0396 19.6764C19.0937 19.8122 19.175 19.9339 19.2833 20.0415L20.9083 21.6665C21.0167 21.7748 21.143 21.829 21.2875 21.829C21.4319 21.829 21.5583 21.7748 21.6667 21.6665C21.775 21.5582 21.8292 21.4318 21.8292 21.2873C21.8292 21.1429 21.775 21.0165 21.6667 20.9082L20.0417 19.2832Z" fill="#7D818A"/>
</svg>
